# xmcd
#
# Track frame offsets: 
#        150
#        14048
#        31108
#        47898
#        68543
#        95650
#        112594
#        141368
#        161879
#        179717
#        212451
#        232364
#        243611
#        261452
#
# Disc length: 4003 seconds
#
# Revision: 2
# Processed by: cddbd v1.5.2PL0 Copyright (c) Steve Scherf et al.
# Submitted via: ExactAudioCopy v1.0b6
#
DISCID=d10fa10e
DTITLE=Guy Davis - On Air
DYEAR=2007
DGENRE=Blues
TTITLE0=Drop Down Mama
TTITLE1=When You've Got A Good Friend
TTITLE2=Waitin' On The Cards To Fall
TTITLE3=Train Story
TTITLE4=Drifting Blues
TTITLE5=Good Liquor Gonna Carry Me Down
TTITLE6=Sweetheart Like You
TTITLE7=Back Door Man
TTITLE8=Dust My Broom
TTITLE9=Loneliest Road That I Know
TTITLE10=Limetown
TTITLE11=Step It Up And Go
TTITLE12=Saturday Blues
TTITLE13=Joppatown
EXTD=
EXTT0=
EXTT1=
EXTT2=
EXTT3=
EXTT4=
EXTT5=
EXTT6=
EXTT7=
EXTT8=
EXTT9=
EXTT10=
EXTT11=
EXTT12=
EXTT13=
PLAYORDER=
